<?xml version="1.0" encoding="utf-8"?>
<!-- Generator: Adobe Illustrator 24.0.1, SVG Export Plug-In . SVG Version: 6.00 Build 0)  -->
<svg version="1.1" id="Layer_1" xmlns="http://www.w3.org/2000/svg" xmlns:xlink="http://www.w3.org/1999/xlink" x="0px" y="0px"
	 viewBox="0 0 50 50" style="enable-background:new 0 0 50 50;" xml:space="preserve">
<style type="text/css">
	.st0{display:none;}
	.st1{display:inline;fill:#3F85EE;}
	.st2{display:inline;fill:#464C83;}
	.st3{display:inline;fill:#FD4B4B;}
	.st4{display:inline;fill:#9AC87F;}
	.st5{display:inline;fill:#F1D161;}
	.st6{display:inline;fill:#F68E22;}
	.st7{fill-rule:evenodd;clip-rule:evenodd;fill:#6BD9E8;}
	.st8{fill-rule:evenodd;clip-rule:evenodd;fill:#326CF4;}
	.st9{fill-rule:evenodd;clip-rule:evenodd;fill:#3A427E;}
</style>
<g class="st0">
	<path class="st1" d="M36.2,29.3v2.1c0,1.3-0.3,2.5-0.7,3.7c-0.5,1.2-1.2,2.3-2.1,3.2c-0.9,0.9-2,1.6-3.2,2.1
		c-1.2,0.5-2.5,0.7-3.7,0.7h-9.6l-6.2,6v-5.8c-2-0.6-3.8-1.8-5.1-3.5c-1.3-1.7-2-3.8-2-5.9v-9.6c0-2.6,1-5.1,2.9-6.9
		s4.3-2.9,6.9-2.9h5.8c0,0,0,0.1,0,0.1c-0.6,1.6-0.9,3.4-0.9,5.1h1.9c0-1.8,0.4-3.5,1.1-5.1c0,0,0-0.1,0.1-0.1h5
		c-0.5,0.7-0.8,1.5-1,2.4c-0.2,0.8-0.2,1.7,0,2.6l1.8-0.4c-0.1-0.7-0.1-1.5,0.1-2.2c0.2-0.7,0.6-1.4,1.2-1.9
		c0.1-0.1,0.1-0.1,0.2-0.2l0.1,0c1.7,0.4,3.3,1.2,4.6,2.5c1.3,1.2,2.2,2.8,2.7,4.5l0,0c-1.6,2-3.7,3.8-5.3,4.6l-0.2-0.2
		c-0.7-0.6-1.7-1.4-2.8-1.4c-0.4,0-0.7,0.1-1,0.2L21.2,25c-0.3,0.1-0.6,0.3-0.8,0.7c-0.2,0.3-0.2,0.7-0.1,1l1.2,5.9
		c0.1,0.3,0.2,0.6,0.5,0.8c0.2,0.2,0.6,0.3,0.9,0.3h0.3C27.8,33.6,32.4,32.2,36.2,29.3L36.2,29.3z"/>
	<path class="st2" d="M36.3,22.4v6.9l-0.1,0.1c-3.8,2.7-8.3,4.2-13,4.3h-0.3c-0.3,0-0.6-0.1-0.9-0.3c-0.2-0.2-0.4-0.5-0.5-0.8
		l-1.2-5.9c-0.1-0.3,0-0.7,0.1-1c0.2-0.3,0.4-0.5,0.8-0.7l5.3-1.9c0.3-0.1,0.7-0.2,1-0.2c1.1,0,2,0.8,2.8,1.4l0.2,0.2
		c1.7-0.8,3.8-2.6,5.3-4.6l0,0c0,0.1,0,0.2,0.1,0.2C36.2,20.9,36.2,21.7,36.3,22.4z"/>
	<path class="st3" d="M40.6,25.4c-1.3,1.5-2.8,2.8-4.4,4v-6.9c0-0.8-0.1-1.6-0.3-2.3c0-0.1,0-0.2-0.1-0.2c1-1.2,1.8-2.5,2.4-3.9h0
		c-0.8-0.9-2.3-2.3-1.9-3.9l1.3-5.7c0.1-0.3,0.2-0.6,0.5-0.8c0.3-0.2,0.6-0.3,0.9-0.3h0.2l6,0.6c0.3,0,0.6,0.2,0.9,0.4
		c0.2,0.2,0.4,0.5,0.4,0.8C47.4,13.4,45.2,20.1,40.6,25.4z"/>
	<path class="st2" d="M28.3,13.1c-0.5,0.5-0.9,1.2-1.2,1.9c-0.2,0.7-0.3,1.5-0.1,2.2l-1.8,0.4c-0.2-0.8-0.2-1.7,0-2.6
		c0.2-0.8,0.5-1.7,1-2.4h0.3c0.7,0,1.3,0.1,2,0.2C28.4,13,28.3,13,28.3,13.1z"/>
	<path class="st2" d="M21.2,12.7c0,0,0,0.1-0.1,0.1c-0.7,1.6-1.1,3.4-1.1,5.1h-1.9c0-1.8,0.3-3.5,0.9-5.1c0,0,0-0.1,0-0.1H21.2z"/>
	<path class="st3" d="M32.9,4.9c-2.5,0-4.9,0.8-7,2.2c-2.1,1.4-3.7,3.3-4.7,5.6h-2c1.1-2.8,2.9-5.2,5.4-6.9c2.4-1.7,5.3-2.7,8.3-2.7
		L32.9,4.9z"/>
	<path class="st3" d="M32.4,9.9l-0.3,1.9c-0.7-0.1-1.3,0-2,0.2c-0.6,0.2-1.2,0.5-1.7,1c-0.7-0.1-1.3-0.2-2-0.2h-0.3v0
		c0.2-0.3,0.5-0.6,0.8-0.9c0.7-0.7,1.6-1.3,2.5-1.6C30.4,9.9,31.4,9.8,32.4,9.9z"/>
</g>
<g class="st0">
	<path class="st4" d="M33.2,46.9v-7.1h-15l2.5-4.1h21.9v-4.1l5.5,4.1L33.2,46.9z"/>
	<path class="st5" d="M41.7,4.6H4.9l18.3,15.6L41.7,4.6z"/>
	<path class="st5" d="M23.2,21.2L4,4.8v30.9h16.8L19,32.4h14.2v-7.1l9.4,7.1V4.9L23.2,21.2z"/>
	<path class="st6" d="M42.6,31.6v4.1H20.7l-2.5-4.1h15v-7.1L42.6,31.6z"/>
</g>
<g>
	<path class="st7" d="M26.4,21.5c-1.7,0-3,1.3-3,3v12.4c0,1.7,1.3,3,3,3h11.1l4.7,4.7v-4.7h1.1c1.7,0,3-1.3,3-3V24.5
		c0-1.7-1.3-3-3-3H26.4z"/>
	<path class="st8" d="M31.7,8.4c1.7,0,3,1.3,3,3v18.4c0,1.7-1.3,3-3,3H16L9.8,39v-6.2H7.3c-1.7,0-3-1.3-3-3V11.4c0-1.7,1.3-3,3-3
		H31.7z"/>
	<path class="st9" d="M34.7,21.5v8.3c0,1.7-1.3,3-3,3h-8.2v-8.3c0-1.7,1.3-3,3-3H34.7z"/>
</g>
</svg>
